<?xml version="1.0" encoding="UTF-8" standalone="no"?><!DOCTYPE svg PUBLIC "-//W3C//DTD SVG 1.1//EN" "http://www.w3.org/Graphics/SVG/1.1/DTD/svg11.dtd"><svg width="100%" height="100%" viewBox="0 0 266 290" version="1.1" xmlns="http://www.w3.org/2000/svg" xmlns:xlink="http://www.w3.org/1999/xlink" xml:space="preserve" xmlns:serif="http://www.serif.com/" style="fill-rule:evenodd;clip-rule:evenodd;stroke-linejoin:round;stroke-miterlimit:2;"><path d="M61.875,56.649c-4.065,3.361 -7.289,6.026 -11.104,9.182c4.838,1.791 8.708,3.223 13.558,5.018c-0.888,-5.137 -1.597,-9.239 -2.454,-14.2m203.289,233.018l-6.286,0c-23.492,0.002 -46.984,-0.045 -70.477,0.065c-2.964,0.014 -4.767,-0.952 -6.459,-3.391c-33.929,-48.91 -67.942,-97.763 -101.937,-146.627c-11.048,-15.878 -22.136,-31.729 -33.095,-47.669c-1.446,-2.104 -3.131,-2.583 -5.502,-3.029c-7.359,-1.386 -13.158,0.902 -18.063,6.287c-1.042,1.143 -2.43,1.971 -4.544,3.646c1.278,-6.291 1.674,-11.772 3.623,-16.629c1.35,-3.366 4.64,-6.088 7.438,-8.696c2.203,-2.055 1.914,-3.51 0.327,-5.691c-4.179,-5.742 -8.145,-11.64 -12.518,-17.941c1.331,-0.193 2.219,-0.433 3.106,-0.434c25.741,-0.024 51.482,0.028 77.223,-0.09c3.327,-0.015 5.461,0.97 7.359,3.79c19.162,28.481 38.453,56.876 57.704,85.297c33.1,48.867 66.196,97.736 99.285,146.609c0.809,1.193 1.531,2.444 2.815,4.503" style="fill-rule:nonzero;"/><path d="M0,251.292c22.218,-39.12 43.958,-77.396 65.973,-116.158c1.011,1.251 1.894,2.216 2.635,3.279c8.71,12.488 17.36,25.018 26.125,37.467c1.67,2.373 2.139,4.25 0.432,7.003c-13.42,21.641 -26.702,43.369 -39.909,65.142c-1.475,2.431 -3.048,3.359 -5.936,3.327c-14.62,-0.159 -29.242,-0.065 -43.864,-0.06l-5.456,-0" style="fill-rule:nonzero;"/><path d="M163.466,116.65c-4.389,-6.33 -8.29,-11.958 -12.193,-17.585c-5.694,-8.206 -11.348,-16.44 -17.117,-24.592c-1.262,-1.783 -1.269,-3.103 -0.099,-5.002c12.239,-19.863 24.791,-39.553 36.315,-59.827c4.318,-7.598 9.163,-10.132 17.653,-9.568c12.193,0.808 24.479,0.202 36.726,0.2l4.854,-0c-22.158,38.988 -43.938,77.311 -66.139,116.374" style="fill-rule:nonzero;"/></svg>