<?xml version="1.0" encoding="UTF-8" standalone="no"?><!DOCTYPE svg PUBLIC "-//W3C//DTD SVG 1.1//EN" "http://www.w3.org/Graphics/SVG/1.1/DTD/svg11.dtd"><svg width="100%" height="100%" viewBox="0 0 909 314" version="1.1" xmlns="http://www.w3.org/2000/svg" xmlns:xlink="http://www.w3.org/1999/xlink" xml:space="preserve" xmlns:serif="http://www.serif.com/" style="fill-rule:evenodd;clip-rule:evenodd;stroke-linejoin:round;stroke-miterlimit:2;"><path d="M66.89,61.24c-4.394,3.634 -7.88,6.515 -12.004,9.926c5.23,1.937 9.414,3.485 14.657,5.425c-0.96,-5.553 -1.726,-9.988 -2.653,-15.351m219.767,251.905l-6.796,0c-25.396,0.002 -50.792,-0.049 -76.189,0.07c-3.205,0.016 -5.154,-1.029 -6.983,-3.665c-36.679,-52.875 -73.449,-105.688 -110.199,-158.512c-11.944,-17.165 -23.931,-34.301 -35.778,-51.533c-1.563,-2.274 -3.385,-2.792 -5.948,-3.274c-7.955,-1.499 -14.224,0.975 -19.527,6.796c-1.126,1.236 -2.627,2.131 -4.912,3.942c1.381,-6.801 1.81,-12.726 3.917,-17.977c1.459,-3.639 5.016,-6.582 8.04,-9.401c2.382,-2.222 2.07,-3.794 0.354,-6.152c-4.518,-6.208 -8.805,-12.584 -13.533,-19.395c1.439,-0.209 2.399,-0.469 3.358,-0.47c27.827,-0.026 55.655,0.031 83.482,-0.097c3.597,-0.016 5.904,1.049 7.956,4.097c20.715,30.79 41.569,61.486 62.381,92.211c35.783,52.828 71.561,105.658 107.332,158.492c0.875,1.29 1.655,2.642 3.043,4.868" style="fill:#fff;fill-rule:nonzero;"/><path d="M0,271.66c24.019,-42.291 47.521,-83.67 71.32,-125.573c1.093,1.352 2.048,2.395 2.849,3.544c9.416,13.501 18.767,27.046 28.242,40.504c1.806,2.566 2.313,4.595 0.467,7.571c-14.507,23.395 -28.866,46.884 -43.143,70.422c-1.595,2.628 -3.295,3.631 -6.417,3.597c-15.805,-0.172 -31.613,-0.071 -47.42,-0.065l-5.898,-0" style="fill:#fff;fill-rule:nonzero;"/><path d="M176.716,126.104c-4.745,-6.843 -8.962,-12.927 -13.182,-19.01c-6.155,-8.871 -12.268,-17.772 -18.504,-26.585c-1.364,-1.928 -1.372,-3.355 -0.107,-5.408c13.231,-21.473 26.8,-42.758 39.258,-64.676c4.668,-8.214 9.906,-10.953 19.084,-10.343c13.181,0.873 26.463,0.218 39.703,0.216l5.247,-0c-23.954,42.148 -47.499,83.577 -71.499,125.806" style="fill:#fff;fill-rule:nonzero;"/><g transform="matrix(197.522,0,0,197.522,911.028,219.17)"></g><text x="254.662px" y="219.17px" style="font-family:'BwModelica-ExtraBold', 'Bw Modelica';font-weight:800;font-size:197.522px;fill:#fff;">C<tspan x="406.556px " y="219.17px ">A</tspan>MC</text></svg>