<?xml version="1.0" encoding="UTF-8" standalone="no"?><!DOCTYPE svg PUBLIC "-//W3C//DTD SVG 1.1//EN" "http://www.w3.org/Graphics/SVG/1.1/DTD/svg11.dtd"><svg width="100%" height="100%" viewBox="0 0 701 242" version="1.1" xmlns="http://www.w3.org/2000/svg" xmlns:xlink="http://www.w3.org/1999/xlink" xml:space="preserve" xmlns:serif="http://www.serif.com/" style="fill-rule:evenodd;clip-rule:evenodd;stroke-linejoin:round;stroke-miterlimit:2;"><path d="M51.582,47.225c-3.389,2.801 -6.077,5.023 -9.257,7.654c4.033,1.493 7.259,2.687 11.302,4.183c-0.74,-4.282 -1.331,-7.702 -2.045,-11.837m169.47,194.253l-5.241,-0c-19.584,0.002 -39.167,-0.038 -58.752,0.054c-2.471,0.012 -3.974,-0.793 -5.385,-2.827c-28.284,-40.773 -56.639,-81.499 -84.979,-122.234c-9.21,-13.237 -18.453,-26.451 -27.589,-39.739c-1.205,-1.754 -2.61,-2.153 -4.587,-2.525c-6.134,-1.155 -10.969,0.752 -15.058,5.241c-0.868,0.953 -2.025,1.643 -3.788,3.04c1.066,-5.245 1.396,-9.814 3.021,-13.863c1.125,-2.806 3.868,-5.075 6.2,-7.249c1.837,-1.713 1.596,-2.926 0.273,-4.745c-3.484,-4.786 -6.79,-9.703 -10.436,-14.956c1.11,-0.161 1.85,-0.361 2.59,-0.362c21.458,-0.02 42.917,0.024 64.376,-0.075c2.773,-0.012 4.552,0.809 6.135,3.16c15.974,23.743 32.056,47.414 48.104,71.107c27.594,40.737 55.184,81.477 82.768,122.219c0.675,0.995 1.276,2.038 2.347,3.754" style="fill-rule:nonzero;"/><path d="M0,209.487c18.522,-32.612 36.645,-64.52 54.998,-96.834c0.843,1.043 1.579,1.847 2.196,2.733c7.261,10.411 14.472,20.856 21.779,31.234c1.393,1.979 1.783,3.543 0.36,5.838c-11.187,18.041 -22.259,36.155 -33.269,54.306c-1.23,2.026 -2.541,2.8 -4.949,2.773c-12.188,-0.133 -24.377,-0.054 -36.567,-0.05l-4.548,0" style="fill-rule:nonzero;"/><path d="M136.272,97.244c-3.659,-5.277 -6.911,-9.969 -10.165,-14.66c-4.746,-6.841 -9.46,-13.705 -14.269,-20.501c-1.052,-1.486 -1.058,-2.586 -0.083,-4.169c10.203,-16.559 20.667,-32.973 30.274,-49.875c3.6,-6.334 7.639,-8.446 14.716,-7.976c10.165,0.674 20.407,0.168 30.617,0.167l4.046,-0c-18.472,32.502 -36.628,64.449 -55.136,97.014" style="fill-rule:nonzero;"/><g transform="matrix(152.317,0,0,152.317,702.528,169.01)"></g><text x="196.379px" y="169.01px" style="font-family:'BwModelica-ExtraBold', 'Bw Modelica';font-weight:800;font-size:152.317px;">C<tspan x="313.511px " y="169.01px ">A</tspan>MC</text></svg>